<svg width="7" height="7" viewBox="0 0 7 7" fill="none" xmlns="http://www.w3.org/2000/svg">
<path d="M5.29261 2.96778L3.31775 0.891016C3.22668 0.791856 3.17629 0.659047 3.17743 0.521194C3.17857 0.383341 3.23115 0.251473 3.32385 0.153992C3.41654 0.0565116 3.54194 0.00121778 3.67303 1.98752e-05C3.80412 -0.00117803 3.93041 0.0518159 4.0247 0.147588L6.85299 3.12183C6.89958 3.17054 6.93655 3.22846 6.96178 3.29225C6.98701 3.35604 7 3.42445 7 3.49354C7 3.56263 6.98701 3.63104 6.96178 3.69483C6.93655 3.75862 6.89958 3.81654 6.85299 3.86525L4.0247 6.83949C3.97858 6.88971 3.92341 6.92976 3.86242 6.95731C3.80142 6.98487 3.73581 6.99937 3.66943 6.99998C3.60304 7.00059 3.53721 6.98728 3.47577 6.96085C3.41432 6.93441 3.3585 6.89537 3.31156 6.84601C3.26462 6.79664 3.22749 6.73794 3.20235 6.67333C3.17721 6.60871 3.16456 6.53948 3.16514 6.46967C3.16572 6.39986 3.17951 6.33087 3.20571 6.26672C3.23191 6.20258 3.27 6.14456 3.31775 6.09606L5.29261 4.0193H0.499963C0.367365 4.0193 0.240197 3.96391 0.146436 3.86531C0.0526745 3.76671 0 3.63298 0 3.49354C0 3.3541 0.0526745 3.22037 0.146436 3.12177C0.240197 3.02317 0.367365 2.96778 0.499963 2.96778H5.29261Z" fill="#10217D"/>
</svg>
