<svg width="27" height="27" viewBox="0 0 27 27" fill="none" xmlns="http://www.w3.org/2000/svg">
<path d="M23.7633 4.42102H21.3686V5.8947H23.5791V22.1052H2.94751V5.8947H5.15803V4.42102H2.7633C2.59105 4.4239 2.42106 4.46068 2.26303 4.52927C2.105 4.59785 1.96203 4.6969 1.84229 4.82075C1.72255 4.9446 1.62837 5.09082 1.56515 5.25107C1.50193 5.41132 1.47089 5.58246 1.47382 5.7547V22.2452C1.47089 22.4175 1.50193 22.5886 1.56515 22.7489C1.62837 22.9091 1.72255 23.0553 1.84229 23.1792C1.96203 23.303 2.105 23.4021 2.26303 23.4707C2.42106 23.5393 2.59105 23.576 2.7633 23.5789H23.7633C23.9355 23.576 24.1055 23.5393 24.2636 23.4707C24.4216 23.4021 24.5646 23.303 24.6843 23.1792C24.804 23.0553 24.8982 22.9091 24.9614 22.7489C25.0247 22.5886 25.0557 22.4175 25.0528 22.2452V5.7547C25.0557 5.58246 25.0247 5.41132 24.9614 5.25107C24.8982 5.09082 24.804 4.9446 24.6843 4.82075C24.5646 4.6969 24.4216 4.59785 24.2636 4.52927C24.1055 4.46068 23.9355 4.4239 23.7633 4.42102Z" fill="black"/>
<path d="M5.89453 10.3157H7.36822V11.7894H5.89453V10.3157Z" fill="black"/>
<path d="M10.3159 10.3157H11.7896V11.7894H10.3159V10.3157Z" fill="black"/>
<path d="M14.7368 10.3157H16.2105V11.7894H14.7368V10.3157Z" fill="black"/>
<path d="M19.1582 10.3157H20.6319V11.7894H19.1582V10.3157Z" fill="black"/>
<path d="M5.89453 14H7.36822V15.4737H5.89453V14Z" fill="black"/>
<path d="M10.3159 14H11.7896V15.4737H10.3159V14Z" fill="black"/>
<path d="M14.7368 14H16.2105V15.4737H14.7368V14Z" fill="black"/>
<path d="M19.1582 14H20.6319V15.4737H19.1582V14Z" fill="black"/>
<path d="M5.89453 17.6842H7.36822V19.1579H5.89453V17.6842Z" fill="black"/>
<path d="M10.3159 17.6842H11.7896V19.1579H10.3159V17.6842Z" fill="black"/>
<path d="M14.7368 17.6842H16.2105V19.1579H14.7368V17.6842Z" fill="black"/>
<path d="M19.1582 17.6842H20.6319V19.1579H19.1582V17.6842Z" fill="black"/>
<path d="M7.36819 7.36849C7.56361 7.36849 7.75103 7.29086 7.88922 7.15268C8.0274 7.01449 8.10503 6.82707 8.10503 6.63165V2.2106C8.10503 2.01517 8.0274 1.82776 7.88922 1.68957C7.75103 1.55139 7.56361 1.47375 7.36819 1.47375C7.17277 1.47375 6.98535 1.55139 6.84716 1.68957C6.70898 1.82776 6.63135 2.01517 6.63135 2.2106V6.63165C6.63135 6.82707 6.70898 7.01449 6.84716 7.15268C6.98535 7.29086 7.17277 7.36849 7.36819 7.36849Z" fill="black"/>
<path d="M19.1577 7.36849C19.3532 7.36849 19.5406 7.29086 19.6788 7.15268C19.817 7.01449 19.8946 6.82707 19.8946 6.63165V2.2106C19.8946 2.01517 19.817 1.82776 19.6788 1.68957C19.5406 1.55139 19.3532 1.47375 19.1577 1.47375C18.9623 1.47375 18.7749 1.55139 18.6367 1.68957C18.4985 1.82776 18.4209 2.01517 18.4209 2.2106V6.63165C18.4209 6.82707 18.4985 7.01449 18.6367 7.15268C18.7749 7.29086 18.9623 7.36849 19.1577 7.36849Z" fill="black"/>
<path d="M9.5791 4.42102H16.9475V5.8947H9.5791V4.42102Z" fill="black"/>
</svg>
