<svg width="40" height="40" viewBox="0 0 40 40" fill="none" xmlns="http://www.w3.org/2000/svg">
<g clip-path="url(#clip0_25_3264)">
<path d="M35.9387 5.5688C33.9701 3.52935 31.3108 2.40185 28.4506 2.39357C25.5066 2.38349 22.5563 3.52662 20.1925 5.55873C17.5041 3.13255 15.0722 1.94958 12.7822 1.94958C9.58395 1.94958 6.61666 3.24044 4.44709 5.5638C2.81642 7.2349 1.69912 9.42896 1.2148 11.9092C1.06981 12.6546 1.54109 13.3794 2.26852 13.5285C2.99504 13.6762 3.70311 13.1941 3.84864 12.4486C4.22822 10.5033 5.09165 8.79544 6.36653 7.48857C8.04507 5.6913 10.3239 4.70185 12.7822 4.70185C14.5633 4.70185 16.7208 5.93169 19.172 8.33302C19.4468 8.61607 19.808 8.77248 20.189 8.77294C20.1894 8.77294 20.1904 8.77294 20.1907 8.77294C20.5708 8.77294 20.932 8.61748 21.2073 8.33537C23.1862 6.3074 25.8137 5.14591 28.4188 5.14591C28.4274 5.14591 28.4354 5.14591 28.4435 5.14591C30.6144 5.15185 32.5464 5.96794 34.0145 7.48857C35.7369 9.33216 36.6855 11.7469 36.6855 14.289C36.6855 16.8331 35.7154 19.3079 34.0512 21.0519L20.2125 34.761L9.23921 23.8958C8.7061 23.3679 7.85608 23.3839 7.34043 23.9289C6.82523 24.4757 6.84002 25.3468 7.37314 25.8747L19.2797 37.6637C19.5398 37.9215 19.8764 38.0504 20.2125 38.0504C20.5487 38.0504 20.8853 37.9215 21.1458 37.6642L35.9441 23.0037C38.1217 20.7225 39.3706 17.5463 39.3706 14.289C39.3706 11.0344 38.1571 7.9431 35.9387 5.5688Z" fill="#10217D"/>
<path d="M36.9535 17.4543H26.1212C25.7514 17.4543 25.3987 17.6098 25.1454 17.885L21.0734 22.2974L16.3832 11.3947C16.1818 10.9263 15.7432 10.6112 15.245 10.5768C14.7494 10.5442 14.271 10.7942 14.01 11.2305L10.2849 17.4543H1.68126C0.939491 17.4543 0.338379 18.0703 0.338379 18.8305C0.338379 19.5906 0.939491 20.2067 1.68126 20.2067H11.036C11.5029 20.2067 11.9367 19.9581 12.1806 19.5498L14.9595 14.9076L19.4316 25.303C19.6129 25.725 19.9885 26.0255 20.4316 26.1039C20.5077 26.1172 20.5842 26.1241 20.6603 26.1241C21.0265 26.1241 21.3805 25.9709 21.6361 25.6938L26.6996 20.2066H36.9536C37.6953 20.2066 38.2965 19.5905 38.2965 18.8304C38.2963 18.0703 37.6952 17.4543 36.9535 17.4543Z" fill="#10217D"/>
</g>
<defs>
<clipPath id="clip0_25_3264">
<rect width="39.0323" height="40" fill="white" transform="translate(0.338379)"/>
</clipPath>
</defs>
</svg>
