<svg width="25" height="25" viewBox="0 0 25 25" fill="none" xmlns="http://www.w3.org/2000/svg">
<path d="M16.7608 2.18594H8.6467C7.06123 2.18781 5.54124 2.81853 4.42024 3.93972C3.29924 5.06091 2.66877 6.581 2.66718 8.16647L2.66718 16.2806C2.66904 17.8661 3.29976 19.3861 4.42095 20.5071C5.54214 21.6281 7.06223 22.2585 8.6477 22.2601H16.7618C18.3473 22.2583 19.8673 21.6275 20.9883 20.5064C22.1093 19.3852 22.7398 17.8651 22.7414 16.2796V8.16547C22.7395 6.58 22.1088 5.06001 20.9876 3.93901C19.8664 2.818 18.3463 2.18754 16.7608 2.18594V2.18594ZM20.7224 16.2796C20.7224 16.7998 20.6199 17.315 20.4208 17.7956C20.2217 18.2763 19.9299 18.713 19.5621 19.0808C19.1942 19.4487 18.7575 19.7405 18.2768 19.9396C17.7962 20.1387 17.2811 20.2411 16.7608 20.2411H8.6467C7.5962 20.2409 6.58883 19.8234 5.84611 19.0805C5.10339 18.3376 4.68616 17.3301 4.68616 16.2796V8.16547C4.68642 7.11497 5.10392 6.1076 5.84682 5.36488C6.58973 4.62216 7.59721 4.20492 8.6477 4.20492H16.7618C17.8123 4.20519 18.8197 4.62269 19.5624 5.36559C20.3051 6.1085 20.7224 7.11598 20.7224 8.16647V16.2806V16.2796Z" fill="white"/>
<path d="M12.7037 7.03127C11.3277 7.03339 10.0086 7.58104 9.03567 8.55415C8.06274 9.52727 7.51535 10.8464 7.51349 12.2225C7.51508 13.5989 8.0625 14.9185 9.03567 15.8919C10.0088 16.8652 11.3283 17.4129 12.7047 17.4147C14.0813 17.4131 15.401 16.8656 16.3744 15.8922C17.3478 14.9188 17.8954 13.5991 17.897 12.2225C17.8948 10.8461 17.3469 9.52672 16.3734 8.55374C15.3998 7.58076 14.0801 7.0336 12.7037 7.03227V7.03127ZM12.7037 15.3958C11.8624 15.3958 11.0555 15.0615 10.4606 14.4666C9.86568 13.8717 9.53146 13.0648 9.53146 12.2235C9.53146 11.3822 9.86568 10.5753 10.4606 9.98038C11.0555 9.38547 11.8624 9.05125 12.7037 9.05125C13.5451 9.05125 14.3519 9.38547 14.9468 9.98038C15.5418 10.5753 15.876 11.3822 15.876 12.2235C15.876 13.0648 15.5418 13.8717 14.9468 14.4666C14.3519 15.0615 13.5451 15.3958 12.7037 15.3958Z" fill="white"/>
<path d="M17.906 8.31424C18.5929 8.31424 19.1498 7.75739 19.1498 7.07048C19.1498 6.38357 18.5929 5.82671 17.906 5.82671C17.2191 5.82671 16.6622 6.38357 16.6622 7.07048C16.6622 7.75739 17.2191 8.31424 17.906 8.31424Z" fill="white"/>
</svg>
