<svg width="25" height="25" viewBox="0 0 25 25" fill="none" xmlns="http://www.w3.org/2000/svg">
<path d="M22.9541 13.969V21.3884H18.6527V14.4657C18.6527 12.7263 18.0304 11.5398 16.4739 11.5398C15.2854 11.5398 14.5776 12.3402 14.2669 13.1134C14.1533 13.3899 14.1241 13.775 14.1241 14.1621V21.3884H9.8207C9.8207 21.3884 9.87902 9.66462 9.8207 8.449H14.1241V10.283L14.096 10.3252H14.1241V10.283C14.6952 9.40319 15.7158 8.14535 18.0012 8.14535C20.8316 8.14535 22.9541 9.99542 22.9541 13.969ZM5.32023 2.21208C3.84923 2.21208 2.88599 3.17733 2.88599 4.44724C2.88599 5.68899 3.82107 6.6834 5.26392 6.6834H5.29207C6.79324 6.6834 7.72531 5.68899 7.72531 4.44724C7.69917 3.17733 6.79424 2.21208 5.32123 2.21208H5.32023ZM3.14138 21.3884H7.44277V8.449H3.14138V21.3884Z" fill="white"/>
</svg>
