<svg width="40" height="40" viewBox="0 0 40 40" fill="none" xmlns="http://www.w3.org/2000/svg">
<path d="M29.2908 0H10.7553C9.99693 0 9.38232 0.614609 9.38232 1.37297V8.10063C9.38232 8.85898 9.99693 9.47359 10.7553 9.47359H29.2908C30.0491 9.47359 30.6637 8.85898 30.6637 8.10063V1.37297C30.6637 0.614609 30.0491 0 29.2908 0ZM27.9178 6.72766H12.1283V2.74602H27.9177V6.72766H27.9178Z" fill="#10217D"/>
<path d="M27.3227 8.14673H24.5767V14.4625H27.3227V8.14673Z" fill="#10217D"/>
<path d="M15.4233 8.14673H12.6772V14.4625H15.4233V8.14673Z" fill="#10217D"/>
<path d="M29.977 13.0891H10.0227C8.76094 13.0891 7.73438 14.1157 7.73438 15.3775V37.7115C7.73438 38.9733 8.76094 39.9999 10.0227 39.9999H29.977C31.2388 39.9999 32.2653 38.9733 32.2653 37.7115V15.3775C32.2653 14.1157 31.2388 13.0891 29.977 13.0891ZM29.5193 37.2539H10.4804V15.8351H29.5193V37.2539Z" fill="#10217D"/>
<path d="M19.9999 20.2744C19.2416 20.2744 18.627 20.889 18.627 21.6474V31.4414C18.627 32.1998 19.2416 32.8144 19.9999 32.8144C20.7583 32.8144 21.3729 32.1998 21.3729 31.4414V21.6474C21.3729 20.889 20.7583 20.2744 19.9999 20.2744Z" fill="#10217D"/>
<path d="M24.897 25.1716H15.1029C14.3446 25.1716 13.73 25.7862 13.73 26.5446C13.73 27.303 14.3446 27.9176 15.1029 27.9176H24.897C25.6558 27.9176 26.27 27.303 26.27 26.5446C26.27 25.7862 25.6554 25.1716 24.897 25.1716Z" fill="#10217D"/>
</svg>
