<svg width="40" height="40" viewBox="0 0 40 40" fill="none" xmlns="http://www.w3.org/2000/svg">
<g clip-path="url(#clip0_25_3330)">
<path d="M34.0852 13.24L27.048 6.02831C26.5685 5.53729 25.7927 5.5369 25.3132 6.02745L7.18823 24.5599L8.92219 26.3411L26.1794 8.6958L31.4826 14.131L14.2647 31.8157L16.0023 33.5926L34.0864 15.0178C34.5647 14.5263 34.5644 13.7306 34.0852 13.24Z" fill="#10217D"/>
<path d="M36.1723 5.65146L34.454 3.89045C34.0538 3.48037 33.4327 3.40365 32.9492 3.70467L27.0166 7.39443L28.2903 9.54497L33.3992 6.36716L33.7551 6.73232L30.6547 11.9679L32.7532 13.2732L36.3537 7.19349C36.6473 6.69802 36.5725 6.06107 36.1723 5.65146Z" fill="#10217D"/>
<path d="M18.2924 34.1633L6.63182 22.2136C6.15268 21.7222 5.37532 21.7222 4.89626 22.2136C4.41674 22.7047 4.41674 23.5013 4.89626 23.9922L16.5568 35.9419C16.7962 36.1876 17.1104 36.3104 17.4246 36.3104C17.7384 36.3104 18.0531 36.1875 18.2924 35.9419C18.7719 35.451 18.7719 34.6543 18.2924 34.1633Z" fill="#10217D"/>
<path d="M17.986 23.1787L6.53101 34.9609L8.26974 36.7362L19.7247 24.954L17.986 23.1787Z" fill="#10217D"/>
<path d="M15.5742 20.707L4.11926 32.4893L5.858 34.2646L17.313 22.4823L15.5742 20.707Z" fill="#10217D"/>
<path d="M11.1323 37.8529L3.03128 29.5506C2.55177 29.0595 1.7744 29.0588 1.29526 29.5506C0.816129 30.0416 0.816129 30.8377 1.29526 31.3292L9.39627 39.6315C9.63603 39.8772 9.95027 40 10.2644 40C10.5782 40 10.8929 39.8771 11.1322 39.6315C11.6114 39.1405 11.6114 38.3443 11.1323 37.8529Z" fill="#10217D"/>
<path d="M39.6087 0.368676C39.1291 -0.122729 38.3526 -0.122729 37.8731 0.368676L33.577 4.77117C33.0975 5.26218 33.0975 6.05882 33.577 6.54976C33.8168 6.79546 34.1306 6.91827 34.4448 6.91827C34.7591 6.91827 35.0732 6.79538 35.3126 6.54976L39.6086 2.14727C40.0882 1.65633 40.0882 0.859691 39.6087 0.368676Z" fill="#10217D"/>
<path d="M15.1825 18.3131L13.4467 20.0919L20.361 27.1776L22.0968 25.3988L15.1825 18.3131Z" fill="#10217D"/>
</g>
<defs>
<clipPath id="clip0_25_3330">
<rect width="39.0323" height="40" fill="white" transform="translate(0.936035)"/>
</clipPath>
</defs>
</svg>
