<svg width="25" height="25" viewBox="0 0 25 25" fill="none" xmlns="http://www.w3.org/2000/svg">
<path d="M22.5578 6.11429C21.8041 6.44346 21.0058 6.65929 20.1889 6.75477C21.0464 6.25127 21.6911 5.4528 22.0028 4.50855C21.1904 4.98145 20.3043 5.31454 19.3815 5.49391C18.993 5.08691 18.5256 4.76333 18.0078 4.54292C17.4901 4.32251 16.9328 4.2099 16.3701 4.21194C14.0918 4.21194 12.2447 6.03184 12.2447 8.27403C12.2447 8.59176 12.2809 8.90245 12.3513 9.19907C10.717 9.12134 9.11681 8.70378 7.6529 7.97304C6.18899 7.24229 4.89348 6.21441 3.84904 4.95498C3.48288 5.57274 3.29042 6.27796 3.29201 6.99608C3.29271 7.6677 3.46076 8.32856 3.78096 8.91894C4.10117 9.50931 4.56343 10.0106 5.12599 10.3775C4.47192 10.3564 3.83197 10.1817 3.25783 9.8677V9.91798C3.25783 11.8867 4.68057 13.5286 6.56582 13.9026C6.2115 13.9967 5.84649 14.0443 5.47991 14.0444C5.21346 14.0444 4.95506 14.0193 4.70269 13.969C4.97224 14.7814 5.48806 15.4896 6.17853 15.9954C6.869 16.5011 7.69983 16.7794 8.55564 16.7914C7.08773 17.9221 5.28568 18.5329 3.43278 18.5278C3.09896 18.5278 2.77118 18.5077 2.44843 18.4715C4.33997 19.6687 6.53324 20.3027 8.77182 20.2994C16.3601 20.2994 20.5087 14.1088 20.5087 8.74057L20.4946 8.21471C21.3038 7.64529 22.0029 6.93359 22.5578 6.11429Z" fill="white"/>
</svg>
