<svg width="25" height="25" viewBox="0 0 25 25" fill="none" xmlns="http://www.w3.org/2000/svg">
<path d="M17.9094 5.21943H6.17859C3.87607 5.21943 2.01093 7.06446 2.01093 9.34084V15.1404C2.01093 17.4168 3.87708 19.2628 6.17859 19.2628H17.9094C20.2119 19.2628 22.0771 17.4168 22.0771 15.1404V9.34084C22.0771 7.06446 20.2109 5.21842 17.9094 5.21842V5.21943ZM15.0911 12.5221L9.60423 15.1112C9.57076 15.1273 9.53376 15.1347 9.49667 15.1327C9.45958 15.1307 9.42361 15.1193 9.3921 15.0996C9.3606 15.08 9.33457 15.0526 9.31646 15.0202C9.29835 14.9878 9.28873 14.9513 9.28851 14.9142V9.57612C9.28918 9.53879 9.29929 9.50224 9.31789 9.46987C9.33649 9.4375 9.36299 9.41037 9.39491 9.39099C9.42682 9.37162 9.46313 9.36065 9.50043 9.35908C9.53773 9.35752 9.57482 9.36543 9.60825 9.38207L15.0961 12.132C15.1326 12.1503 15.1633 12.1784 15.1846 12.2133C15.2058 12.2482 15.2169 12.2883 15.2163 12.3292C15.2158 12.37 15.2038 12.4099 15.1816 12.4442C15.1595 12.4785 15.1281 12.5059 15.0911 12.5232V12.5221Z" fill="white"/>
</svg>
